<svg xmlns="http://www.w3.org/2000/svg" version="1.1" xmlns:xlink="http://www.w3.org/1999/xlink" xmlns:svgjs="http://svgjs.dev/svgjs" width="2000" height="2000" viewBox="0 0 2000 2000"><g transform="matrix(1,0,0,1,-0.28443113772425477,-0.28443113772459583)"><svg viewBox="0 0 334 334" data-background-color="#ffffff" preserveAspectRatio="xMidYMid meet" height="2000" width="2000" xmlns="http://www.w3.org/2000/svg" xmlns:xlink="http://www.w3.org/1999/xlink"><g id="tight-bounds" transform="matrix(1,0,0,1,0.04749999999998522,0.04750000000001364)"><svg viewBox="0 0 333.90454557049503 333.90454557049503" height="333.90454557049503" width="333.90454557049503"><g><svg></svg></g><g><svg viewBox="0 0 333.90454557049503 333.90454557049503" height="333.90454557049503" width="333.90454557049503"><g><path d="M0 166.952c0-92.205 74.747-166.952 166.952-166.952 92.205 0 166.952 74.747 166.953 166.952 0 92.205-74.747 166.952-166.953 166.953-92.205 0-166.952-74.747-166.952-166.953zM166.952 316.63c82.665 0 149.677-67.013 149.678-149.678 0-82.665-67.013-149.677-149.678-149.677-82.665 0-149.677 67.013-149.677 149.677 0 82.665 67.013 149.677 149.677 149.678z" data-fill-palette-color="tertiary" fill="#ed2647" stroke="transparent"></path><ellipse rx="160.27418187383762" ry="160.27418187383762" cx="166.95227278524752" cy="166.95227278524752" fill="#ed2647" stroke="transparent" stroke-width="0" fill-opacity="1" data-fill-palette-color="tertiary"></ellipse></g><g transform="matrix(1,0,0,1,83.58194859230836,71.17305217166896)"><svg viewBox="0 0 166.7406483858783 191.55844122715712" height="191.55844122715712" width="166.7406483858783"><g><svg viewBox="0 0 166.7406483858783 191.55844122715712" height="191.55844122715712" width="166.7406483858783"><g><svg viewBox="0 0 166.7406483858783 191.55844122715712" height="191.55844122715712" width="166.7406483858783"><g><svg viewBox="0 0 166.7406483858783 191.55844122715712" height="191.55844122715712" width="166.7406483858783"><g id="textblocktransform"><svg viewBox="0 0 166.7406483858783 191.55844122715712" height="191.55844122715712" width="166.7406483858783" id="textblock"><g><svg viewBox="0 0 166.7406483858783 191.55844122715712" height="191.55844122715712" width="166.7406483858783"><g transform="matrix(1,0,0,1,0,0)"><svg width="166.7406483858783" viewBox="2.49 -37.5 32.64 37.5" height="191.55844122715712" data-palette-color="#ffffff"><path d="M21.24-15.99L21.24-9.38Q22.9-9.38 24.37-9.66 25.83-9.94 27.06-10.38 28.3-10.82 29.3-11.38 30.3-11.94 31.05-12.5L31.05-12.5 35.13-12.5 35.13 0 2.49 0 2.49-10.6 5.62-11.21 5.62-26.25 2.49-26.86 2.49-37.5 35.13-37.5 35.13-25 31.2-25Q30.42-25.54 29.39-26.1 28.37-26.66 27.11-27.11 25.85-27.56 24.39-27.84 22.92-28.13 21.24-28.13L21.24-28.13 21.24-21.46 28.56-23.05 28.56-14.4 21.24-15.99Z" opacity="1" transform="matrix(1,0,0,1,0,0)" fill="#ffffff" class="wordmark-text-0" data-fill-palette-color="quaternary" id="text-0"></path></svg></g></svg></g></svg></g></svg></g><g></g></svg></g></svg></g></svg></g></svg></g><defs></defs></svg><rect width="333.90454557049503" height="333.90454557049503" fill="none" stroke="none" visibility="hidden"></rect></g></svg></g></svg>